<svg xmlns="http://www.w3.org/2000/svg" viewBox="0 0 190 39" fill="none" class="h-9"><path fill="url(#a)" d="M16.743 35.285a2.758 2.758 0 0 0 5.515 0V19.106a2.758 2.758 0 1 0-5.515 0v16.179Z"></path><path fill="url(#b)" d="M6.114 28.594a2.758 2.758 0 0 0 3.9 3.9l11.44-11.44a2.757 2.757 0 1 0-3.9-3.9l-11.44 11.44Z"></path><path fill="url(#c)" d="M3.326 16.355a2.758 2.758 0 0 0 0 5.515h16.179a2.758 2.758 0 1 0 0-5.515H3.326Z"></path><path fill="url(#d)" d="M10.02 5.717a2.758 2.758 0 1 0-3.9 3.9l11.44 11.44a2.757 2.757 0 1 0 3.9-3.9L10.02 5.717Z"></path><path fill="url(#e)" d="M22.263 2.933a2.758 2.758 0 1 0-5.515 0V19.11a2.757 2.757 0 1 0 5.515 0V2.933Z"></path><path fill="url(#f)" d="M32.892 9.62a2.758 2.758 0 0 0-3.9-3.9l-11.44 11.44a2.758 2.758 0 0 0 3.9 3.9l11.44-11.44Z"></path><path fill="url(#g)" d="M35.682 21.87a2.757 2.757 0 1 0 0-5.516H19.504a2.758 2.758 0 1 0 0 5.515h16.178Z"></path><path fill="#F2F2F2" d="M19.505 20.847a1.734 1.734 0 1 0 0-3.47 1.734 1.734 0 0 0 0 3.47Z"></path><g fill="#000" clip-path="url(#h)"><path d="M58.127 12.39c-1.004 0-1.745.64-2.253 1.948L51.44 25.837h2.74l1.116-3.014h5.531l.081.192 1.045 2.832h2.842L60.38 14.338c-.507-1.309-1.248-1.948-2.253-1.948Zm1.604 8.14h-3.298l-.183-.255.05-.152 1.564-4.222h.416l.08.193 1.544 4.171-.183.264h.01ZM69.2 12.583h-2.568v13.244h2.567V12.583ZM73.493 13.08a3.684 3.684 0 0 0-1.472 1.37c-.355.589-.538 1.279-.538 2.05 0 .771.183 1.41.538 1.99a3.52 3.52 0 0 0 1.472 1.329c.629.314 1.33.477 2.1.477h.772c.528 0 .964.132 1.279.406.334.284.497.66.497 1.116 0 .457-.163.832-.498 1.127-.314.273-.75.416-1.278.416h-4.943v2.476h5.126c2.171 0 3.988-1.715 4.059-3.816a3.89 3.89 0 0 0-1.106-2.882 3.914 3.914 0 0 0-2.842-1.208h-.873c-.477 0-.873-.132-1.177-.406a1.364 1.364 0 0 1-.467-1.045c0-.416.152-.761.457-1.035.294-.264.69-.396 1.187-.396h4.82v-2.466h-5.023c-.76 0-1.471.162-2.1.487l.01.01ZM96.439 22.58a.39.39 0 0 1-.762.01l-1.522-6.496c-.193-.842-.538-1.482-1.005-1.898a2.33 2.33 0 0 0-1.613-.619c-.62 0-1.137.203-1.594.62-.456.415-.791 1.055-.984 1.907l-1.482 6.353a.383.383 0 0 1-.386.305.381.381 0 0 1-.375-.315l-1.979-9.864h-2.71l2.243 10.696c.193.954.528 1.655.985 2.101.446.437 1.025.65 1.745.65.72 0 1.33-.213 1.796-.64.467-.436.823-1.146 1.046-2.09l1.451-6.191h.477l.061.233 1.39 5.968c.224.954.579 1.654 1.056 2.09.477.437 1.065.64 1.816.64.751 0 1.3-.213 1.746-.65.457-.446.782-1.146.984-2.1l2.233-10.707h-2.618l-2 9.986v.01ZM110.992 23.797c-.223-.223-.507-.335-.873-.335h-3.633a1.52 1.52 0 0 1-1.116-.447 1.52 1.52 0 0 1-.447-1.116v-.04c0-.447.152-.823.447-1.117a1.52 1.52 0 0 1 1.116-.446h2.649c.355 0 .639-.112.873-.335.223-.223.334-.508.334-.853s-.111-.619-.334-.852c-.224-.224-.508-.335-.873-.335h-2.751c-.405 0-.761-.142-1.035-.426a1.41 1.41 0 0 1-.426-1.036v-.04c0-.426.142-.782.426-1.056.284-.274.63-.406 1.035-.406h3.735c.355 0 .64-.111.873-.335.223-.223.335-.507.335-.852s-.112-.619-.335-.852c-.223-.224-.507-.335-.873-.335h-7.672v13.244h7.672c.355 0 .64-.112.873-.335.223-.224.335-.508.335-.853s-.112-.619-.335-.852v.01ZM119.07 12.39c-1.004 0-1.745.64-2.253 1.948l-4.435 11.499h2.74l1.117-3.014h5.531l.081.192 1.045 2.832h2.842l-4.435-11.499c-.507-1.309-1.248-1.948-2.253-1.948l.02-.01Zm1.604 8.14h-3.299l-.182-.255.051-.152 1.562-4.222h.417l.081.193 1.542 4.171-.182.264h.01ZM124.125 14.957h2.73c.537 0 1.004.183 1.37.548.365.366.548.822.548 1.37v8.952h2.567v-8.952c0-.537.183-1.004.548-1.37.366-.365.822-.548 1.37-.548h2.73v-2.374h-11.863v2.374ZM142.555 13.08a3.684 3.684 0 0 0-1.472 1.37c-.355.589-.538 1.279-.538 2.05 0 .771.183 1.41.538 1.99a3.52 3.52 0 0 0 1.472 1.329 4.631 4.631 0 0 0 2.1.477h.772c.528 0 .964.132 1.279.406.334.284.497.66.497 1.116 0 .457-.163.832-.497 1.127-.315.273-.751.416-1.279.416h-4.943v2.476h5.125c2.172 0 3.989-1.715 4.06-3.816a3.888 3.888 0 0 0-1.106-2.882 3.915 3.915 0 0 0-2.842-1.208h-.873c-.477 0-.872-.132-1.177-.406a1.365 1.365 0 0 1-.467-1.045c0-.416.152-.761.457-1.035.294-.264.69-.396 1.187-.396h4.821v-2.466h-5.024c-.761 0-1.471.162-2.1.487l.01.01ZM160.559 15.881a1.9 1.9 0 0 1-.427 1.228c-.395.467-.903.71-1.512.71h-2.649c-.466 0-.903-.152-1.238-.436-.467-.396-.7-.893-.7-1.482v-3.318h-2.568v13.244h2.568v-3.694c0-.528.193-.985.558-1.36a1.864 1.864 0 0 1 1.36-.569h2.669c.528 0 .985.193 1.37.569.376.375.569.842.569 1.37v3.694h2.567V12.583h-2.567v3.298ZM175.101 13.303c-1.055-.599-2.253-.913-3.572-.913s-2.517.304-3.572.913a6.522 6.522 0 0 0-2.487 2.466c-.599 1.036-.903 2.193-.903 3.44 0 1.249.304 2.406.903 3.441a6.592 6.592 0 0 0 2.487 2.466c1.055.6 2.253.914 3.572.914s2.517-.305 3.572-.914a6.522 6.522 0 0 0 2.487-2.466 6.786 6.786 0 0 0 .903-3.44 6.786 6.786 0 0 0-.903-3.44 6.592 6.592 0 0 0-2.487-2.467Zm-.01 8.028a4.265 4.265 0 0 1-1.482 1.553 3.885 3.885 0 0 1-2.07.578 3.86 3.86 0 0 1-2.07-.578 4.265 4.265 0 0 1-1.482-1.553 4.266 4.266 0 0 1-.548-2.121c0-.761.183-1.472.548-2.121a4.266 4.266 0 0 1 1.482-1.553 3.86 3.86 0 0 1 2.07-.579 3.86 3.86 0 0 1 2.07.579 4.188 4.188 0 0 1 1.482 1.553c.365.65.548 1.36.548 2.12 0 .762-.183 1.472-.548 2.122ZM188.315 14.755a4.42 4.42 0 0 0-1.624-1.584 4.57 4.57 0 0 0-2.273-.588h-4.506v13.244h2.568V21.29h1.938c.822 0 1.593-.193 2.273-.588a4.42 4.42 0 0 0 1.624-1.584c.396-.66.589-1.4.589-2.182 0-.781-.203-1.522-.589-2.181Zm-2.101 2.334c-.06 1.035-.954 1.847-2.029 1.847h-1.888V15.008H184.266c.538 0 1.066.224 1.431.62.375.395.568.923.528 1.47l-.011-.01ZM136.161 25.979a1.867 1.867 0 1 0 0-3.735 1.867 1.867 0 0 0 0 3.735Z"></path></g><defs><linearGradient id="a" x1="19.5" x2="19.5" y1="18.001" y2="34.946" gradientUnits="userSpaceOnUse"><stop offset="0.4" stop-color="#FFCE87"></stop><stop offset="0.47" stop-color="#FFBB72"></stop><stop offset="0.64" stop-color="#FF8E41"></stop><stop offset="0.79" stop-color="#FF6E1D"></stop><stop offset="0.92" stop-color="#FF5B07"></stop><stop offset="1" stop-color="#FF5400"></stop></linearGradient><linearGradient id="b" x1="20.289" x2="8.307" y1="18.326" y2="30.308" gradientUnits="userSpaceOnUse"><stop offset="0.2" stop-color="#FFCE87"></stop><stop offset="0.29" stop-color="#FFBB72"></stop><stop offset="0.52" stop-color="#FF8E41"></stop><stop offset="0.73" stop-color="#FF6E1D"></stop><stop offset="0.89" stop-color="#FF5B07"></stop><stop offset="1" stop-color="#FF5400"></stop></linearGradient><linearGradient id="c" x1="20.616" x2="3.671" y1="19.112" y2="19.112" gradientUnits="userSpaceOnUse"><stop offset="0.23" stop-color="#FFCE87"></stop><stop offset="0.32" stop-color="#FFBB72"></stop><stop offset="0.54" stop-color="#FF8E41"></stop><stop offset="0.74" stop-color="#FF6E1D"></stop><stop offset="0.9" stop-color="#FF5B07"></stop><stop offset="1" stop-color="#FF5400"></stop></linearGradient><linearGradient id="d" x1="20.3" x2="8.318" y1="19.896" y2="7.914" gradientUnits="userSpaceOnUse"><stop offset="0.26" stop-color="#FFCE87"></stop><stop offset="0.34" stop-color="#FFBB72"></stop><stop offset="0.56" stop-color="#FF8E41"></stop><stop offset="0.75" stop-color="#FF6E1D"></stop><stop offset="0.9" stop-color="#FF5B07"></stop><stop offset="1" stop-color="#FF5400"></stop></linearGradient><linearGradient id="e" x1="19.5" x2="19.5" y1="20.222" y2="3.278" gradientUnits="userSpaceOnUse"><stop offset="0.37" stop-color="#FFCE87"></stop><stop offset="0.44" stop-color="#FFBB72"></stop><stop offset="0.62" stop-color="#FF8E41"></stop><stop offset="0.78" stop-color="#FF6E1D"></stop><stop offset="0.92" stop-color="#FF5B07"></stop><stop offset="1" stop-color="#FF5400"></stop></linearGradient><linearGradient id="f" x1="18.725" x2="30.703" y1="19.895" y2="7.918" gradientUnits="userSpaceOnUse"><stop offset="0.25" stop-color="#FFCE87"></stop><stop offset="0.34" stop-color="#FFBB72"></stop><stop offset="0.55" stop-color="#FF8E41"></stop><stop offset="0.74" stop-color="#FF6E1D"></stop><stop offset="0.9" stop-color="#FF5B07"></stop><stop offset="1" stop-color="#FF5400"></stop></linearGradient><linearGradient id="g" x1="16.248" x2="33.193" y1="19.117" y2="19.117" gradientUnits="userSpaceOnUse"><stop offset="0.37" stop-color="#FFCE87"></stop><stop offset="0.44" stop-color="#FFBB72"></stop><stop offset="0.62" stop-color="#FF8E41"></stop><stop offset="0.78" stop-color="#FF6E1D"></stop><stop offset="0.92" stop-color="#FF5B07"></stop><stop offset="1" stop-color="#FF5400"></stop></linearGradient><clipPath id="h"><path fill="#fff" d="M51.44 12.197h138.113v13.65H51.44z"></path></clipPath></defs></svg>